<svg xmlns="http://www.w3.org/2000/svg" width="32.122" height="33.618" viewBox="0 0 32.122 33.618">
  <path id="Icon_awesome-phone-alt" data-name="Icon awesome-phone-alt" d="M31.205,23.756,24.179,20.6a1.463,1.463,0,0,0-1.757.453L19.31,25.037A23.824,23.824,0,0,1,8.194,13.4L12,10.145a1.62,1.62,0,0,0,.433-1.839L9.417.953A1.5,1.5,0,0,0,7.692.04L1.167,1.616A1.563,1.563,0,0,0,0,3.152C0,19.994,13.043,33.618,29.111,33.618A1.522,1.522,0,0,0,30.579,32.4l1.506-6.829A1.615,1.615,0,0,0,31.205,23.756Z" transform="translate(0 0)" fill="#fff"/>
</svg>
