<svg xmlns="http://www.w3.org/2000/svg" width="34.617" height="36.055" viewBox="0 0 34.617 36.055">
  <path id="Icon_awesome-google" data-name="Icon awesome-google" d="M34.617,19.012c0,10.286-6.874,17.606-17.025,17.606A17.792,17.792,0,0,1,0,18.59,17.792,17.792,0,0,1,17.592.563a16.7,16.7,0,0,1,11.8,4.718L24.6,10C18.337,3.8,6.689,8.457,6.689,18.59a11.164,11.164,0,0,0,10.9,11.384c6.966,0,9.576-5.118,9.988-7.771H17.592V16H34.34A16.183,16.183,0,0,1,34.617,19.012Z" transform="translate(0 -0.563)" fill="#fff"/>
</svg>
